<mxfile host="65bd71144e">
    <diagram id="LKaKQfK8-kJvVLxzSaqW" name="PÃ¡gina-1">
        <mxGraphModel dx="2815" dy="415" grid="1" gridSize="10" guides="1" tooltips="1" connect="1" arrows="1" fold="1" page="1" pageScale="1" pageWidth="1600" pageHeight="1200" background="#ffffff" math="0" shadow="0">
            <root>
                <mxCell id="0"/>
                <mxCell id="1" parent="0"/>
                <mxCell id="111" value="Propietario de contactos" style="shape=umlActor;verticalLabelPosition=bottom;verticalAlign=top;html=1;fillColor=#76608a;strokeColor=#432D57;fontColor=#000000;" parent="1" vertex="1">
                    <mxGeometry x="130" y="1230" width="30" height="60" as="geometry"/>
                </mxCell>
                <mxCell id="112" value="" style="endArrow=none;startArrow=none;endFill=0;startFill=0;endSize=8;html=1;verticalAlign=bottom;labelBackgroundColor=none;strokeWidth=3;fillColor=#76608a;strokeColor=#432D57;dashed=1;" parent="1" edge="1">
                    <mxGeometry width="160" relative="1" as="geometry">
                        <mxPoint x="145" y="1310" as="sourcePoint"/>
                        <mxPoint x="145" y="2100" as="targetPoint"/>
                    </mxGeometry>
                </mxCell>
                <mxCell id="113" value="VPrincipal" style="shape=umlLifeline;perimeter=lifelinePerimeter;whiteSpace=wrap;html=1;container=1;collapsible=0;recursiveResize=0;outlineConnect=0;fillColor=#008a00;strokeColor=#005700;fontColor=#ffffff;" parent="1" vertex="1">
                    <mxGeometry x="420" y="1320" width="100" height="800" as="geometry"/>
                </mxCell>
                <mxCell id="114" value="" style="html=1;points=[];perimeter=orthogonalPerimeter;fillColor=#008a00;strokeColor=#005700;fontColor=#ffffff;" parent="113" vertex="1">
                    <mxGeometry x="45" y="90" width="10" height="710" as="geometry"/>
                </mxCell>
                <mxCell id="115" value="ControlGUI" style="shape=umlLifeline;perimeter=lifelinePerimeter;whiteSpace=wrap;html=1;container=1;collapsible=0;recursiveResize=0;outlineConnect=0;strokeColor=#3700CC;fillColor=#6a00ff;fontColor=#ffffff;" parent="1" vertex="1">
                    <mxGeometry x="820" y="1240" width="100" height="860" as="geometry"/>
                </mxCell>
                <mxCell id="116" value="" style="shape=umlDestroy;dashed=0;" parent="115" vertex="1">
                    <mxGeometry x="30" y="280" width="40" height="40" as="geometry"/>
                </mxCell>
                <mxCell id="117" value="" style="edgeStyle=orthogonalEdgeStyle;rounded=0;orthogonalLoop=1;jettySize=auto;html=1;fontColor=#000000;" parent="115" source="118" edge="1">
                    <mxGeometry relative="1" as="geometry">
                        <mxPoint y="460" as="targetPoint"/>
                    </mxGeometry>
                </mxCell>
                <mxCell id="118" value="" style="html=1;points=[];perimeter=orthogonalPerimeter;fillColor=#6a00ff;strokeColor=#3700CC;fontColor=#ffffff;" parent="115" vertex="1">
                    <mxGeometry x="45" y="70" width="10" height="780" as="geometry"/>
                </mxCell>
                <mxCell id="119" value="GestorContactos" style="shape=umlLifeline;perimeter=lifelinePerimeter;whiteSpace=wrap;html=1;container=1;collapsible=0;recursiveResize=0;outlineConnect=0;fillColor=#a20025;strokeColor=#6F0000;fontColor=#ffffff;" parent="1" vertex="1">
                    <mxGeometry x="1340" y="1240" width="100" height="920" as="geometry"/>
                </mxCell>
                <mxCell id="120" value="" style="html=1;points=[];perimeter=orthogonalPerimeter;fillColor=#a20025;strokeColor=#6F0000;fontColor=#ffffff;" parent="119" vertex="1">
                    <mxGeometry x="45" y="90" width="10" height="550" as="geometry"/>
                </mxCell>
                <mxCell id="121" value="Buscar Duplicados" style="html=1;verticalAlign=bottom;labelBackgroundColor=none;endArrow=open;endFill=0;fontColor=#006600;strokeWidth=3;fillColor=#60a917;strokeColor=#2D7600;" parent="1" edge="1">
                    <mxGeometry width="160" relative="1" as="geometry">
                        <mxPoint x="150" y="1440.12" as="sourcePoint"/>
                        <mxPoint x="460" y="1440" as="targetPoint"/>
                    </mxGeometry>
                </mxCell>
                <mxCell id="123" value="Buscar Duplicados" style="html=1;verticalAlign=bottom;labelBackgroundColor=none;endArrow=open;endFill=0;fontColor=#006600;strokeWidth=3;fillColor=#60a917;strokeColor=#2D7600;entryX=-0.471;entryY=0.167;entryDx=0;entryDy=0;entryPerimeter=0;" parent="1" source="114" target="118" edge="1">
                    <mxGeometry width="160" relative="1" as="geometry">
                        <mxPoint x="480" y="1440.12" as="sourcePoint"/>
                        <mxPoint x="700" y="1440" as="targetPoint"/>
                    </mxGeometry>
                </mxCell>
                <mxCell id="132" value="Create" style="html=1;verticalAlign=bottom;labelBackgroundColor=none;endArrow=open;endFill=0;fontColor=#006600;strokeWidth=3;fillColor=#6a00ff;strokeColor=#3700CC;" parent="1" source="118" edge="1">
                    <mxGeometry width="160" relative="1" as="geometry">
                        <mxPoint x="860" y="1340" as="sourcePoint"/>
                        <mxPoint x="520" y="1340" as="targetPoint"/>
                    </mxGeometry>
                </mxCell>
                <mxCell id="142" value="GestorAnalisis" style="shape=umlLifeline;perimeter=lifelinePerimeter;whiteSpace=wrap;html=1;container=1;collapsible=0;recursiveResize=0;outlineConnect=0;fillColor=#a20025;strokeColor=#6F0000;fontColor=#ffffff;" parent="1" vertex="1">
                    <mxGeometry x="1060" y="1415" width="100" height="770" as="geometry"/>
                </mxCell>
                <mxCell id="143" value="" style="html=1;points=[];perimeter=orthogonalPerimeter;fillColor=#a20025;strokeColor=#6F0000;fontColor=#ffffff;" parent="142" vertex="1">
                    <mxGeometry x="45" y="90" width="10" height="320" as="geometry"/>
                </mxCell>
                <mxCell id="144" value="&amp;lt;&amp;lt;create&amp;gt;&amp;gt;" style="html=1;verticalAlign=bottom;labelBackgroundColor=none;endArrow=open;endFill=0;fontColor=#006600;strokeWidth=3;fillColor=#60a917;strokeColor=#2D7600;" parent="1" edge="1">
                    <mxGeometry width="160" relative="1" as="geometry">
                        <mxPoint x="880" y="1440" as="sourcePoint"/>
                        <mxPoint x="1060" y="1440" as="targetPoint"/>
                    </mxGeometry>
                </mxCell>
                <mxCell id="145" value="getListaContactos()" style="html=1;verticalAlign=bottom;labelBackgroundColor=none;endArrow=open;endFill=0;fontColor=#006600;strokeWidth=3;fillColor=#60a917;strokeColor=#2D7600;" parent="1" edge="1">
                    <mxGeometry width="160" relative="1" as="geometry">
                        <mxPoint x="1120" y="1540" as="sourcePoint"/>
                        <mxPoint x="1300" y="1540" as="targetPoint"/>
                    </mxGeometry>
                </mxCell>
                <mxCell id="147" value="ArrayList&amp;lt;Contacto&amp;gt; ListaContactos" style="html=1;verticalAlign=bottom;labelBackgroundColor=none;endArrow=open;endFill=0;fontColor=#006600;strokeWidth=3;fillColor=#60a917;strokeColor=#2D7600;dashed=1;" parent="1" edge="1">
                    <mxGeometry width="160" relative="1" as="geometry">
                        <mxPoint x="1360" y="1580" as="sourcePoint"/>
                        <mxPoint x="1140" y="1580" as="targetPoint"/>
                    </mxGeometry>
                </mxCell>
                <mxCell id="148" value="buscarDuplicados" style="html=1;verticalAlign=bottom;labelBackgroundColor=none;endArrow=open;endFill=0;fontColor=#006600;strokeWidth=3;fillColor=#60a917;strokeColor=#2D7600;" parent="1" edge="1">
                    <mxGeometry width="160" relative="1" as="geometry">
                        <mxPoint x="880" y="1540" as="sourcePoint"/>
                        <mxPoint x="1100" y="1540" as="targetPoint"/>
                    </mxGeometry>
                </mxCell>
                <mxCell id="149" value="" style="html=1;points=[];perimeter=orthogonalPerimeter;fillColor=#a20025;strokeColor=#6F0000;shadow=0;fontColor=#ffffff;labelBackgroundColor=#ffffff;" parent="1" vertex="1">
                    <mxGeometry x="1110" y="1630" width="20" height="40" as="geometry"/>
                </mxCell>
                <mxCell id="150" value="analizarDuplicados(ListaContactos)" style="edgeStyle=orthogonalEdgeStyle;html=1;align=left;spacingLeft=2;endArrow=block;rounded=0;entryX=1;entryY=0;fillColor=#a20025;strokeColor=#6F0000;shadow=0;fontColor=#000000;labelBackgroundColor=#ffffff;" parent="1" target="149" edge="1">
                    <mxGeometry relative="1" as="geometry">
                        <mxPoint x="1109.9999999999998" y="1610" as="sourcePoint"/>
                        <Array as="points">
                            <mxPoint x="1140" y="1610"/>
                        </Array>
                    </mxGeometry>
                </mxCell>
                <mxCell id="151" value="ArrayList&amp;lt;Contacto&amp;gt; ListaDuplicados" style="html=1;verticalAlign=bottom;labelBackgroundColor=none;endArrow=open;endFill=0;fontColor=#006600;strokeWidth=3;fillColor=#60a917;strokeColor=#2D7600;dashed=1;" parent="1" edge="1">
                    <mxGeometry width="160" relative="1" as="geometry">
                        <mxPoint x="1120" y="1650" as="sourcePoint"/>
                        <mxPoint x="880" y="1650" as="targetPoint"/>
                    </mxGeometry>
                </mxCell>
                <mxCell id="152" value="mostrarDuplicados(ListaDuplicados)" style="html=1;verticalAlign=bottom;labelBackgroundColor=none;endArrow=open;endFill=0;fontColor=#006600;strokeWidth=3;fillColor=#60a917;strokeColor=#2D7600;" parent="1" edge="1">
                    <mxGeometry width="160" relative="1" as="geometry">
                        <mxPoint x="860" y="1650" as="sourcePoint"/>
                        <mxPoint x="490" y="1650" as="targetPoint"/>
                    </mxGeometry>
                </mxCell>
                <mxCell id="153" value="fusionar()" style="html=1;verticalAlign=bottom;labelBackgroundColor=none;endArrow=open;endFill=0;fontColor=#006600;strokeWidth=3;fillColor=#60a917;strokeColor=#2D7600;" parent="1" edge="1">
                    <mxGeometry width="160" relative="1" as="geometry">
                        <mxPoint x="480" y="1770" as="sourcePoint"/>
                        <mxPoint x="850" y="1770" as="targetPoint"/>
                        <Array as="points">
                            <mxPoint x="590" y="1770"/>
                        </Array>
                    </mxGeometry>
                </mxCell>
                <mxCell id="154" value="" style="html=1;points=[];perimeter=orthogonalPerimeter;fillColor=#008a00;strokeColor=#005700;shadow=0;fontColor=#ffffff;labelBackgroundColor=#ffffff;" parent="1" vertex="1">
                    <mxGeometry x="470" y="1730" width="10" height="90" as="geometry"/>
                </mxCell>
                <mxCell id="155" value="Seleccionar duplicados" style="edgeStyle=orthogonalEdgeStyle;html=1;align=left;spacingLeft=2;endArrow=block;rounded=0;entryX=1;entryY=0;fillColor=#60a917;strokeColor=#2D7600;shadow=0;fontColor=#000000;labelBackgroundColor=#ffffff;" parent="1" target="154" edge="1">
                    <mxGeometry relative="1" as="geometry">
                        <mxPoint x="470" y="1710" as="sourcePoint"/>
                        <Array as="points">
                            <mxPoint x="500" y="1710"/>
                        </Array>
                    </mxGeometry>
                </mxCell>
                <mxCell id="156" value="Fusionar" style="html=1;verticalAlign=bottom;labelBackgroundColor=none;endArrow=open;endFill=0;fontColor=#006600;strokeWidth=3;fillColor=#60a917;strokeColor=#2D7600;entryX=0.983;entryY=0.578;entryDx=0;entryDy=0;entryPerimeter=0;" parent="1" target="154" edge="1">
                    <mxGeometry width="160" relative="1" as="geometry">
                        <mxPoint x="150" y="1780.1199999999997" as="sourcePoint"/>
                        <mxPoint x="460" y="1779.9999999999998" as="targetPoint"/>
                    </mxGeometry>
                </mxCell>
                <mxCell id="158" value="fusionar(ArrayList&amp;lt;Contacto&amp;gt;: ListaFusionados)" style="html=1;verticalAlign=bottom;labelBackgroundColor=none;endArrow=open;endFill=0;fontColor=#006600;strokeWidth=3;fillColor=#60a917;strokeColor=#2D7600;" parent="1" edge="1">
                    <mxGeometry width="160" relative="1" as="geometry">
                        <mxPoint x="890" y="1774.41" as="sourcePoint"/>
                        <mxPoint x="1090" y="1774.41" as="targetPoint"/>
                        <Array as="points">
                            <mxPoint x="935" y="1774.41"/>
                        </Array>
                    </mxGeometry>
                </mxCell>
                <mxCell id="159" value="fusionar(ArrayList&amp;lt;Contacto&amp;gt;NuevaListaContactos)" style="html=1;verticalAlign=bottom;labelBackgroundColor=none;endArrow=open;endFill=0;fontColor=#006600;strokeWidth=3;fillColor=#60a917;strokeColor=#2D7600;" parent="1" edge="1">
                    <mxGeometry width="160" relative="1" as="geometry">
                        <mxPoint x="1140" y="1780" as="sourcePoint"/>
                        <mxPoint x="1350" y="1780" as="targetPoint"/>
                        <Array as="points">
                            <mxPoint x="1200" y="1780.41"/>
                        </Array>
                    </mxGeometry>
                </mxCell>
            </root>
        </mxGraphModel>
    </diagram>
</mxfile>